# xmcd
#
# Track frame offsets: 
#        150
#        11415
#        22147
#        35390
#        44565
#        62917
#        74100
#        83057
#        96267
#        105932
#        113840
#        127142
#        140167
#        153245
#        165872
#        179205
#        190997
#        201402
#        213115
#        224990
#        235630
#        245632
#        259547
#        270040
#        282920
#
# Disc length: 3962 seconds
#
# Revision: 14
# Processed by: cddbd v1.5.2PL0 Copyright (c) Steve Scherf et al.
# Submitted via: ExactAudioCopy v0.90b4
#
DISCID=780f7819
DTITLE=Various Artist - Just Country
DYEAR=1997
DGENRE=Country
TTITLE0=Frankie Laine - Love Is A Golden Ring
TTITLE1=Patsy Cline - Stop Look and Listen
TTITLE2=Lyn Anderson - I Never Promise You A Rose Garden
TTITLE3=Frankie Laine - Rawhide
TTITLE4=Kenny Rogers - The King Of Oak Street
TTITLE5=Ferlin Husky - San Antonio Rose
TTITLE6=George Jones - Please Dont Let That Women Get Me
TTITLE7=Willie Nelson - I Just Dont Understand
TTITLE8=Dave Dudley - Six Days On The Road
TTITLE9=George Jones - Jambalaya
TTITLE10=Don Williams - Ruby Tuesday
TTITLE11=Ferlin Husky - (I'd Be) A Legend In My Time
TTITLE12=Dolly Parton - Little Blossom
TTITLE13=Don Williams - Making Believe
TTITLE14=Don Williams - Where Do We Go From Here
TTITLE15=Patsy Cline - Walkin After Midnight
TTITLE16=Ferlin Husky - Wings Of A Dove
TTITLE17=Kenny Rogers - Elivira
TTITLE18=Patsy Cline - In Care Of The Blues
TTITLE19=Kenny Rogers - Home Made Lies
TTITLE20=Willie Nelson - I Didn't Sleep A Wink
TTITLE21=George Jones - Wedding Bells
TTITLE22=Waylon Jennings - Dream Baby
TTITLE23=Frankie Laine - Moonlight Gambler
TTITLE24=George Jones - Open Pit Mine
EXTD=
EXTT0=
EXTT1=
EXTT2=
EXTT3=
EXTT4=
EXTT5=
EXTT6=
EXTT7=
EXTT8=
EXTT9=
EXTT10=
EXTT11=
EXTT12=
EXTT13=
EXTT14=
EXTT15=
EXTT16=
EXTT17=
EXTT18=
EXTT19=
EXTT20=
EXTT21=
EXTT22=
EXTT23=
EXTT24=
PLAYORDER=
